HIERARCHY
ROOT Hips
{
	OFFSET 0.000000 0.000000 0.000000 
	CHANNELS 6 Xposition Yposition Zposition Yrotation Zrotation Xrotation 
	JOINT Lumbar
	{
		OFFSET 0.000000 0.000000 0.000000 
		CHANNELS 3 Zrotation Xrotation Yrotation
		JOINT Neck
		{
			OFFSET 0.000000 0.445665 0.000000 
			CHANNELS 3 Zrotation Xrotation Yrotation
			End Site
			{
				OFFSET 0.000000 0.227535 0.000000 
			}
		}
		JOINT RightShoulder
		{
			OFFSET 0.019635 0.377685 0.194865 
			CHANNELS 3 Zrotation Xrotation Yrotation
			JOINT RightElbow
			{
				OFFSET 0.000000 -0.243375 0.000000 
				CHANNELS 2 Zrotation Yrotation
				JOINT RightWrist
				{
					OFFSET 0.000000 -0.264825 0.000000 
					CHANNELS 2 Zrotation Xrotation
					End Site
					{
						OFFSET 0.006600 -0.176220 0.000990 
					}
				}
			}
		}
		JOINT LeftShoulder
		{
			OFFSET 0.019635 0.377685 -0.194865 
			CHANNELS 3 Zrotation Xrotation Yrotation
			JOINT LeftElbow
			{
				OFFSET 0.000000 -0.243375 0.000000 
				CHANNELS 2 Zrotation Yrotation
				JOINT LeftWrist
				{
					OFFSET 0.000000 -0.264825 0.000000 
					CHANNELS 2 Zrotation Xrotation
					End Site
					{
						OFFSET 0.006600 -0.176220 -0.000990 
					}
				}
			}
		}
	}
	JOINT RightHip
	{
		OFFSET 0.052140 -0.069960 0.075570 
		CHANNELS 3 Zrotation Xrotation Yrotation
		JOINT RightKnee
		{
			OFFSET 0.000000 -0.402270 0.000000 
			CHANNELS 1 Zrotation
			JOINT RightAnkle
			{
				OFFSET 0.000000 -0.404085 0.000000 
				CHANNELS 3 Zrotation Xrotation Yrotation
				End Site
				{
					OFFSET 0.204105 -0.089430 0.008415 
				}
			}
		}
	}
	JOINT LeftHip
	{
		OFFSET 0.052140 -0.069960 -0.075570 
		CHANNELS 3 Zrotation Xrotation Yrotation
		JOINT LeftKnee
		{
			OFFSET 0.000000 -0.402270 0.000000 
			CHANNELS 1 Zrotation
			JOINT LeftAnkle
			{
				OFFSET 0.000000 -0.404085 0.000000 
				CHANNELS 3 Zrotation Xrotation Yrotation
				End Site
				{
					OFFSET 0.204105 -0.089430 -0.008415 
				}
			}
		}
	}
}
MOTION
Frames: 16
Frame Time: 0.02
3.65762 0.01557 1.0677 759.54127 -23.53009 -7.39054 37.2091 6.10747 6.27483 -9.81617 12.40669 -2.11994 64.53661 -9.90031 53.99081 107.52952 79.37096 -10.19004 -1.91086 -40.87398 99.75364 82.46119 29.4061 -91.37945 5.67936 -3.41515 21.73691 11.12455 -35.43174 -31.54656 7.24745 -2.80154 -2.6107 -0.01199 17.46582 -36.77968 0.47153 -10.58778 27.82719 17.0729
3.669 0.01557 1.06164 761.67117 -23.88059 -7.74215 37.18087 5.85455 5.69165 -9.67118 13.67168 -2.11994 64.65821 -10.51075 53.48669 107.72715 79.39629 -11.25673 -2.13757 -42.29573 102.04503 83.31412 28.44804 -90.91562 5.15625 -3.16863 25.27264 11.3308 -36.36659 -31.20163 5.11038 -2.22861 -2.48849 0.10017 18.75204 -37.03604 0.46197 -9.63624 25.85137 16.07081
3.68058 0.01497 1.05482 763.7366 -24.19118 -7.9294 37.1358 5.58053 5.40644 -9.51601 14.87307 -2.11994 64.2293 -10.96872 52.87165 108.07842 79.66515 -12.22564 -2.32605 -40.81357 103.96049 81.38944 27.59466 -90.16706 4.54045 -2.64787 28.44023 11.54376 -36.93724 -30.06298 1.99146 -1.8939 -2.55304 0.14675 19.86676 -36.94677 0.45053 -8.56953 23.75816 14.91697
3.69209 0.01457 1.04824 765.82094 -24.51199 -8.18298 37.09732 5.32019 5.00128 -9.36002 16.09181 -2.11994 64.01355 -11.48123 52.32344 108.37149 79.8163 -13.21425 -2.53244 -40.83259 105.9944 80.89354 26.748 -89.57838 3.95714 -2.27176 31.72625 11.75076 -37.66464 -29.31004 -0.60012 -1.45884 -2.53081 0.20725 21.04983 -37.01781 0.43982 -7.57717 21.73941 13.84255
3.70348 0.01446 1.04212 767.95484 -24.87165 -8.47219 37.06456 5.03812 4.5344 -9.22423 17.36664 -2.11994 63.97288 -12.06112 51.70402 108.61022 79.98997 -14.32177 -2.74276 -40.28862 108.29369 79.88576 25.65267 -88.86393 3.39701 -1.81938 35.23855 11.97088 -38.40283 -28.44281 -3.58211 -1.01809 -2.53365 0.34388 22.27823 -37.0667 0.42888 -6.47356 19.61308 12.71633
3.71519 0.01361 1.03483 769.96592 -25.13965 -8.64859 37.01726 4.79804 4.26427 -9.04651 18.50592 -2.11994 63.43325 -12.46297 51.20805 108.99828 80.17691 -15.15041 -2.93188 -40.07303 109.91863 79.14569 25.11542 -88.34054 2.7807 -1.45606 38.17864 12.16535 -39.04373 -27.63019 -5.96489 -0.61425 -2.5127 0.30332 23.3696 -37.08233 0.4178 -5.58496 17.68976 11.66594
3.72759 0.01084 1.02466 771.67978 -25.15412 -8.54698 36.91156 4.67875 4.47846 -8.73708 19.29557 -2.11994 61.60833 -12.40591 51.07058 109.79032 80.34612 -15.26418 -3.09155 -42.4488 109.97056 80.65837 25.99051 -88.44641 1.93877 -1.42627 39.70045 12.28225 -39.48351 -27.1429 -6.46674 -0.52199 -2.50077 -0.21391 24.12424 -37.09753 0.40944 -5.27498 16.35947 10.84874
3.74032 0.00735 1.01331 773.26734 -25.07877 -8.33887 36.79584 4.60303 4.87677 -8.38929 19.94788 -2.11994 59.30747 -12.17611 51.06287 110.72281 80.52035 -15.0944 -3.22736 -45.07852 109.32227 82.38319 27.4392 -88.75205 1.06093 -1.49217 40.64443 12.37369 -39.84424 -26.74345 -6.32534 -0.41533 -2.4384 -0.90642 24.74597 -37.09119 0.39857 -5.19604 15.23961 10.11604
3.75301 0.00421 1.00242 774.89456 -25.05023 -8.18348 36.69848 4.50836 5.18215 -8.07147 20.65682 -2.11994 57.24556 -12.0261 51.00244 111.57329 80.69004 -15.03065 -3.35991 -46.90936 108.85378 83.42327 28.70095 -88.94042 0.2635 -1.49815 41.8033 12.48026 -40.26036 -26.31656 -6.45883 -0.12983 -2.31506 -1.51972 25.42845 -37.09154 0.38996 -5.04097 14.02349 9.3549
3.76527 0.00094 0.99185 776.59269 -24.99489 -8.00313 36.54096 4.40974 5.53979 -7.70088 21.39018 -2.11994 55.05847 -11.86073 50.91267 112.50672 80.87788 -15.05494 -3.5488 -51.43799 108.93216 86.77414 29.67607 -89.21538 -0.8028 -1.55849 43.14853 12.57294 -40.58617 -25.80567 -6.6889 -0.60568 -2.53892 -2.13944 26.10481 -37.0928 0.38522 -4.75735 12.80517 8.54817
3.77848 -0.00221 0.98032 778.11621 -24.97484 -7.85288 36.50823 4.3294 5.82495 -7.43057 22.03823 -2.11994 53.03966 -11.6942 50.91512 113.29757 81.02566 -14.83621 -3.61761 -50.55623 107.74121 85.49629 31.35648 -89.3803 -1.32276 -1.53888 43.97618 12.68728 -41.07985 -25.50538 -6.56734 0.47354 -2.04227 -2.77883 26.76303 -37.09151 0.36098 -4.80091 11.64353 7.85613
3.79421 -0.00506 0.96653 779.16935 -25.07113 -7.80172 36.80743 4.29419 5.89357 -7.45195 22.50643 -2.11994 51.48757 -11.51611 51.15067 113.66989 81.06353 -13.96023 -3.33943 -33.70356 102.94383 70.52781 35.07099 -89.02097 -0.26993 -1.21431 43.49022 12.87718 -42.11336 -25.73156 -5.49332 6.16702 0.58086 -3.49391 27.41673 -37.09124 0.37449 -5.66772 10.58436 7.48167
3.81086 -0.00773 0.95178 780.05526 -25.2066 -7.78721 37.23471 4.27499 5.87639 -7.57437 22.88942 -2.11994 50.14479 -11.35265 51.47293 113.8913 81.05948 -12.86045 -2.94533 -11.577 96.94269 51.0533 39.4315 -88.57138 1.32355 -0.81739 42.50988 13.08796 -43.31002 -26.17695 -4.10774 13.36717 3.9011 -4.20883 28.05478 -37.09041 0.35015 -6.86111 9.5764 7.21689
3.82706 -0.01037 0.93739 781.03023 -25.32656 -7.76338 37.61428 4.2451 5.87776 -7.6474 23.2976 -2.11994 48.78462 -11.21688 51.74975 114.17489 81.07204 -11.89981 -2.61841 7.46585 91.67738 34.23558 43.34837 -88.28475 2.6344 -0.49646 41.77467 13.28284 -44.39631 -26.548 -2.95165 19.6647 6.80447 -4.88344 28.6928 -37.08981 0.28516 -7.92081 8.54697 6.88806
3.8434 -0.01352 0.92328 781.9445 -25.43442 -7.70487 37.95222 4.23115 5.97062 -7.73482 23.75922 -2.11994 47.08154 -10.93149 52.0577 114.49076 81.09478 -10.7705 -2.2295 29.33877 85.60366 14.9105 47.92344 -87.51506 4.10218 -0.002 40.93291 13.50376 -45.6317 -26.81479 -1.40561 26.87683 10.12928 -5.74132 29.35785 -37.08835 0.46974 -8.92532 7.51596 6.62043
3.85966 -0.01556 0.90839 782.94852 -25.57704 -7.72858 38.4036 4.18719 5.85189 -7.81542 24.08969 -2.11994 46.14586 -10.96166 52.3182 114.7014 81.08682 -9.94389 -1.94241 46.65163 80.92046 -0.33743 51.26773 -87.69618 5.36907 0.15608 40.203 13.67591 -46.59742 -27.34987 -0.60236 32.54878 12.74454 -6.20684 29.96264 -37.08886 0.11876 -10.12062 6.49921 6.25234
